<svg width="1080" height="1080" viewBox="0 0 1080 1080" fill="none" xmlns="http://www.w3.org/2000/svg">
  <defs>
    <linearGradient id="bg" x1="76" y1="88" x2="1008" y2="980" gradientUnits="userSpaceOnUse">
      <stop stop-color="#FFF0DD"/>
      <stop offset="1" stop-color="#FFD2C6"/>
    </linearGradient>
    <linearGradient id="sheet" x1="280" y1="168" x2="836" y2="880" gradientUnits="userSpaceOnUse">
      <stop stop-color="#173254"/>
      <stop offset="1" stop-color="#244A73"/>
    </linearGradient>
  </defs>
  <rect width="1080" height="1080" rx="48" fill="url(#bg)"/>
  <rect x="228" y="144" width="624" height="780" rx="42" fill="url(#sheet)"/>
  <rect x="228" y="220" width="624" height="88" fill="#FFF8EE" fill-opacity="0.08"/>
  <rect x="290" y="252" width="170" height="16" rx="8" fill="#F1F7FF" fill-opacity="0.26"/>
  <g fill="#FFF3E2">
    <rect x="290" y="352" width="148" height="92" rx="20"/>
    <rect x="466" y="352" width="148" height="92" rx="20"/>
    <rect x="642" y="352" width="148" height="92" rx="20"/>
    <rect x="290" y="474" width="148" height="92" rx="20"/>
    <rect x="466" y="474" width="148" height="92" rx="20"/>
    <rect x="642" y="474" width="148" height="92" rx="20"/>
  </g>
  <rect x="290" y="620" width="500" height="22" rx="11" fill="#F1F7FF" fill-opacity="0.22"/>
  <rect x="290" y="666" width="420" height="22" rx="11" fill="#F1F7FF" fill-opacity="0.22"/>
  <rect x="290" y="742" width="240" height="96" rx="26" fill="#FFB37D"/>
  <circle cx="338" cy="398" r="22" fill="#FF9A60"/>
  <circle cx="514" cy="398" r="22" fill="#FF9A60"/>
  <circle cx="690" cy="398" r="22" fill="#FF9A60"/>
  <text x="288" y="983" fill="#173254" font-size="64" font-weight="700" font-family="'Hiragino Sans','Noto Sans JP',sans-serif">予約導線</text>
  <text x="288" y="1038" fill="#566B83" font-size="34" font-weight="500" font-family="'Hiragino Sans','Noto Sans JP',sans-serif">希望日程の回収まで自然につなぐ</text>
</svg>
